<?xml version="1.0" standalone="no"?>
<!DOCTYPE svg PUBLIC "-//W3C//DTD SVG 20010904//EN"
 "http://www.w3.org/TR/2001/REC-SVG-20010904/DTD/svg10.dtd">
<svg version="1.0" xmlns="http://www.w3.org/2000/svg"
 width="1280.000000pt" height="1280.000000pt" viewBox="0 0 1280.000000 1280.000000"
 preserveAspectRatio="xMidYMid meet">
<metadata>
Created by potrace 1.15, written by Peter Selinger 2001-2017
</metadata>
<g transform="translate(0.000000,1280.000000) scale(0.100000,-0.100000)"
fill="#000000" stroke="none">
<path d="M6140 12794 c-1043 -56 -1966 -314 -2824 -788 -538 -298 -963 -616
-1404 -1051 -924 -909 -1533 -2037 -1787 -3307 -87 -438 -119 -773 -119 -1248
0 -318 7 -466 35 -705 118 -1032 470 -1997 1039 -2850 395 -592 922 -1147
1492 -1573 856 -639 1868 -1056 2928 -1206 336 -48 509 -59 900 -59 391 0 564
11 900 59 1344 190 2593 803 3554 1744 359 352 639 689 891 1074 523 798 856
1680 990 2620 46 326 59 518 59 896 0 390 -13 570 -65 935 -151 1045 -576
2061 -1218 2913 -212 280 -369 458 -633 717 -307 302 -583 528 -923 755 -904
604 -1913 956 -3018 1056 -156 14 -663 25 -797 18z"/>
</g>
</svg>
